<svg xmlns="http://www.w3.org/2000/svg" version="1.1" viewBox="-5.0 -10.0 110.0 135.0">
 <path fill="#b45309" d="m27.57 43.484c-0.60937-0.60938-1.4492-0.98438-2.3789-0.98438-0.92969 0-1.7695 0.375-2.3789 0.98438s-0.98438 1.4492-0.98438 2.3789c0 0.92969 0.375 1.7695 0.98438 2.3789 0.60938 0.60937 1.4492 0.98437 2.3789 0.98437 0.92969 0 1.7695-0.375 2.3789-0.98437 0.60938-0.60938 0.98438-1.4492 0.98438-2.3789 0-0.92969-0.375-1.7695-0.98438-2.3789zm-2.3789-3.3789c1.5898 0 3.0273 0.64453 4.0703 1.6875s1.6875 2.4805 1.6875 4.0703c0 1.5898-0.64453 3.0273-1.6875 4.0703-1.043 1.043-2.4805 1.6875-4.0703 1.6875s-3.0273-0.64453-4.0703-1.6875c-1.043-1.043-1.6875-2.4805-1.6875-4.0703 0-1.5898 0.64453-3.0273 1.6875-4.0703 1.043-1.043 2.4805-1.6875 4.0703-1.6875zm11.617 23.039v4.5703c0 0.66016-0.53516 1.1992-1.1992 1.1992h-20.836c-0.66016 0-1.1992-0.53516-1.1992-1.1992v-4.5703c0-2.6992 1.1016-5.1484 2.8789-6.9258s4.2305-2.8789 6.9258-2.8789h3.6211c2.6992 0 5.1484 1.1016 6.9258 2.8789 1.7773 1.7773 2.8789 4.2305 2.8789 6.9258zm-2.3945 3.3711v-3.3711c0-2.0352-0.83594-3.8906-2.1797-5.2344s-3.1953-2.1797-5.2344-2.1797h-3.6211c-2.0352 0-3.8906 0.83594-5.2344 2.1797s-2.1797 3.1953-2.1797 5.2344v3.3711zm49.609-36.137v48.258l-76.629 0.003906v-48.258h76.633zm-32.426 36.707h23.559c0.66016 0 1.1992-0.53516 1.1992-1.1992 0-0.66016-0.53516-1.1992-1.1992-1.1992h-23.559c-0.66016 0-1.1992 0.53516-1.1992 1.1992 0 0.66016 0.53516 1.1992 1.1992 1.1992zm0-7.5898h23.559c0.66016 0 1.1992-0.53516 1.1992-1.1992 0-0.66016-0.53516-1.1992-1.1992-1.1992h-23.559c-0.66016 0-1.1992 0.53516-1.1992 1.1992 0 0.66016 0.53516 1.1992 1.1992 1.1992zm0-7.5898h23.559c0.66016 0 1.1992-0.53516 1.1992-1.1992 0-0.66016-0.53516-1.1992-1.1992-1.1992h-23.559c-0.66016 0-1.1992 0.53516-1.1992 1.1992 0 0.66016 0.53516 1.1992 1.1992 1.1992zm0-7.5898h13.777c0.66016 0 1.1992-0.53516 1.1992-1.1992 0-0.66016-0.53516-1.1992-1.1992-1.1992h-13.777c-0.66016 0-1.1992 0.53516-1.1992 1.1992 0 0.66016 0.53516 1.1992 1.1992 1.1992zm-9.2773-7.7422v35.852c0 0.66016 0.53516 1.1992 1.1992 1.1992 0.66016 0 1.1992-0.53516 1.1992-1.1992v-35.852c0-0.66016-0.53516-1.1992-1.1992-1.1992-0.66016 0-1.1992 0.53516-1.1992 1.1992zm44.098 33.031 0.003906-40.422c0-0.66016-0.53516-1.1992-1.1992-1.1992l-69.25 0.003906v-6.6289h76.633v48.258h-6.1836zm-72.84-41.617v-7.8242c0-0.66016 0.53516-1.1992 1.1992-1.1992h79.027c0.66016 0 1.1992 0.53516 1.1992 1.1992v50.652c0 0.66016-0.53516 1.1992-1.1992 1.1992h-7.3789v7.8242c0 0.66016-0.53516 1.1992-1.1992 1.1992l-79.027-0.003906c-0.66016 0-1.1992-0.53516-1.1992-1.1992v-50.652c0-0.66016 0.53516-1.1992 1.1992-1.1992h7.3789z" fill-rule="evenodd"/>
<text x="0.0" y="117.5" font-size="0" font-weight="bold" font-family="Arbeit Regular, Helvetica, Arial-Unicode, Arial, Sans-serif" fill="#000000"></text><text x="0.0" y="122.5" font-size="0" font-weight="bold" font-family="Arbeit Regular, Helvetica, Arial-Unicode, Arial, Sans-serif" fill="#000000"></text></svg>