<svg xmlns="http://www.w3.org/2000/svg" xmlns:xlink="http://www.w3.org/1999/xlink" version="1.1" x="0px" y="0px" viewBox="0 0 24 30" enable-background="new 0 0 24 24" xml:space="preserve">
  <g>
    <g>
      <path fill="#b45309" d="M1.612,12.985c-0.216,0-0.392,0.176-0.392,0.392v8.661c0,0.216,0.176,0.392,0.392,0.392h3.07c0.216,0,0.392-0.176,0.392-0.392v-8.661c0-0.216-0.176-0.392-0.392-0.392H1.612z M4.29,21.646H2.003v-7.878H4.29V21.646z"/>
      <path fill="#b45309" d="M13.109,14.183c-0.216,0-0.392,0.176-0.392,0.392v7.463c0,0.216,0.176,0.392,0.392,0.392h3.069c0.216,0,0.392-0.176,0.392-0.392v-7.463c0-0.216-0.176-0.392-0.392-0.392H13.109z M15.787,21.646h-2.286v-6.68h2.286V21.646z"/>
      <path fill="#b45309" d="M18.857,7.033c-0.216,0-0.392,0.176-0.392,0.392v14.613c0,0.216,0.176,0.392,0.392,0.392h3.07c0.216,0,0.392-0.176,0.392-0.392V7.425c0-0.216-0.176-0.392-0.392-0.392H18.857z M21.535,21.646h-2.287V7.816h2.287V21.646z"/>
      <path fill="#b45309" d="M7.361,9.392c-0.216,0-0.392,0.176-0.392,0.392v12.254c0,0.216,0.176,0.392,0.392,0.392h3.07c0.216,0,0.392-0.176,0.392-0.392V9.783c0-0.216-0.176-0.392-0.392-0.392H7.361z M10.039,21.646H7.752V10.175h2.287V21.646z"/>
      <path fill="#b45309" d="M20.436,1.703c0,0.23,0.048,0.449,0.133,0.649L15.28,6.944c-0.291-0.256-0.669-0.417-1.086-0.417c-0.334,0-0.65,0.099-0.919,0.281l-1.859-1.395c0.074-0.187,0.118-0.39,0.118-0.603c0-0.911-0.741-1.652-1.652-1.652c-0.91,0-1.651,0.741-1.651,1.652c0,0.194,0.043,0.38,0.108,0.558L3.002,9.19C2.715,8.949,2.35,8.799,1.947,8.799c-0.91,0-1.651,0.741-1.651,1.652c0,0.91,0.741,1.651,1.651,1.651c0.911,0,1.652-0.741,1.652-1.651c0-0.225-0.046-0.44-0.128-0.635l5.295-3.792c0.301,0.278,0.697,0.438,1.116,0.438c0.414,0,0.788-0.158,1.079-0.411l1.789,1.343c-0.131,0.24-0.207,0.506-0.207,0.785c0,0.911,0.741,1.652,1.652,1.652c0.911,0,1.652-0.741,1.652-1.652c0-0.208-0.043-0.406-0.114-0.59l5.314-4.614c0.285,0.234,0.645,0.381,1.042,0.381c0.91,0,1.651-0.741,1.651-1.652c0-0.91-0.741-1.651-1.651-1.651C21.177,0.052,20.436,0.793,20.436,1.703z M1.947,11.319c-0.478,0-0.868-0.39-0.868-0.868c0-0.479,0.39-0.869,0.868-0.869c0.479,0,0.869,0.39,0.869,0.869C2.816,10.929,2.426,11.319,1.947,11.319z M9.882,5.678c-0.289,0-0.559-0.143-0.721-0.383C9.064,5.152,9.013,4.984,9.013,4.81c0-0.479,0.39-0.869,0.868-0.869c0.479,0,0.869,0.39,0.869,0.869C10.75,5.288,10.361,5.678,9.882,5.678z M14.194,9.047c-0.479,0-0.869-0.39-0.869-0.869c0-0.225,0.086-0.438,0.242-0.601c0.166-0.173,0.389-0.267,0.627-0.267c0.479,0,0.869,0.39,0.869,0.868C15.063,8.657,14.673,9.047,14.194,9.047z M22.088,0.835c0.478,0,0.868,0.39,0.868,0.868c0,0.479-0.39,0.869-0.868,0.869c-0.479,0-0.869-0.39-0.869-0.869C21.219,1.224,21.609,0.835,22.088,0.835z"/>
    </g>
    <path fill="#b45309" d="M22.69,23.165H0.652c-0.216,0-0.392,0.176-0.392,0.392s0.176,0.392,0.392,0.392H22.69c0.216,0,0.392-0.176,0.392-0.392S22.906,23.165,22.69,23.165z"/>
  </g>
  <text x="0" y="39" fill="auto" font-size="0px" font-weight="bold" font-family="'Helvetica Neue', Helvetica, Arial-Unicode, Arial, Sans-serif">Created by Atif Arshad</text>
  <text x="0" y="44" fill="auto" font-size="0px" font-weight="bold" font-family="'Helvetica Neue', Helvetica, Arial-Unicode, Arial, Sans-serif">from the Noun Project</text>
</svg>
