<svg xmlns="http://www.w3.org/2000/svg" version="1.1" viewBox="-5.0 -10.0 110.0 135.0">
 <path fill="#b45309" d="m94.008 13.68h-88.016c-1.582 0-2.8672 1.2852-2.8672 2.8672v63.621c0 1.582 1.2852 2.8672 2.8672 2.8672h16.547c0.45313 0 0.82031-0.36719 0.82031-0.82031s-0.36719-0.82031-0.82031-0.82031h-16.547c-0.67578 0-1.2266-0.55078-1.2266-1.2266l-0.003906-54.477h90.473v54.473c0 0.67578-0.55078 1.2266-1.2266 1.2266h-47.852c-0.45312 0-0.82031 0.36719-0.82031 0.82031 0 0.45312 0.36719 0.82031 0.82031 0.82031h47.852c1.582 0 2.8672-1.2852 2.8672-2.8672v-63.621c0-1.5781-1.2852-2.8633-2.8672-2.8633zm-89.246 10.371v-7.5078c0-0.67578 0.55078-1.2266 1.2266-1.2266h88.02c0.67578 0 1.2266 0.55078 1.2266 1.2266v7.5078zm63.219-7.0742c-1.4922 0-2.707 1.2148-2.707 2.707 0 1.4922 1.2148 2.707 2.707 2.707 1.4922 0 2.707-1.2148 2.707-2.707 0-1.4922-1.2148-2.707-2.707-2.707zm0 3.7773c-0.58984 0-1.0703-0.48047-1.0703-1.0703s0.48047-1.0703 1.0703-1.0703c0.58984 0 1.0703 0.48047 1.0703 1.0703s-0.48047 1.0703-1.0703 1.0703zm8.6719-3.7773c-1.4922 0-2.707 1.2148-2.707 2.707 0 1.4922 1.2148 2.707 2.707 2.707 1.4922 0 2.707-1.2148 2.707-2.707 0-1.4922-1.2148-2.707-2.707-2.707zm0 3.7773c-0.58984 0-1.0703-0.48047-1.0703-1.0703s0.48047-1.0703 1.0703-1.0703 1.0703 0.48047 1.0703 1.0703-0.48047 1.0703-1.0703 1.0703zm8.6719-3.7773c-1.4922 0-2.707 1.2148-2.707 2.707 0 1.4922 1.2148 2.707 2.707 2.707 1.4922 0 2.707-1.2148 2.707-2.707 0-1.4922-1.2148-2.707-2.707-2.707zm0 3.7773c-0.58984 0-1.0703-0.48047-1.0703-1.0703s0.48047-1.0703 1.0703-1.0703c0.58984 0 1.0703 0.48047 1.0703 1.0703s-0.48047 1.0703-1.0703 1.0703zm-44.828 28.438 0.085937-0.61328-3.8086 3.1211c-0.22656 0.1875-0.53906 0.23828-0.8125 0.12891l-2.8164-1.0859-5.6523 4.1328c-0.14453 0.10547-0.31641 0.15625-0.48047 0.15625-0.25391 0-0.5-0.11719-0.66016-0.33594-0.26562-0.36328-0.1875-0.87891 0.17969-1.1445l6.0117-4.3945c0.22656-0.16406 0.51953-0.20312 0.77734-0.10156l2.7891 1.0742 3.4297-2.8086-0.60547-0.027343c-0.44922-0.023438-0.79688-0.41016-0.77344-0.85938 0.023438-0.44922 0.41016-0.79688 0.85938-0.77344l2.7109 0.14453c0.23047 0.011718 0.44141 0.12109 0.58984 0.29687 0.14453 0.17578 0.21094 0.40625 0.17969 0.63281l-0.37891 2.6914c-0.0625 0.44922-0.47656 0.75781-0.92578 0.69531-0.44922-0.066406-0.76172-0.48047-0.69922-0.92969zm9.3516 5.082c0.027344 0.42969 0.38672 0.76562 0.81641 0.76562h7.9453c0.22266 0 0.4375-0.089843 0.58984-0.25391 0.15234-0.16016 0.23828-0.37891 0.22656-0.60156-0.26172-6.0156-2.6484-11.656-6.7461-16.031-0.003907-0.003906-0.003907-0.003906-0.003907-0.007813 0 0-0.003906 0-0.003906-0.003906-0.30469-0.32812-0.62109-0.64844-0.94531-0.96094-4.6953-4.5078-10.867-6.9883-17.379-6.9883-6.5117 0-12.684 2.4805-17.379 6.9883-0.32422 0.3125-0.64062 0.63281-0.94531 0.96094 0 0-0.003907 0-0.003907 0.003906-0.003906 0.003907-0.003906 0.003907-0.003906 0.007813-4.0977 4.375-6.4805 10.016-6.7461 16.031-0.007812 0.22266 0.070313 0.44141 0.22656 0.60156 0.15234 0.16016 0.36719 0.25391 0.58984 0.25391h7.9453c0.42969 0 0.78906-0.33594 0.81641-0.76562 0.53125-8.1367 7.3398-14.508 15.5-14.508 8.1602-0.003906 14.973 6.3711 15.5 14.508zm-14.68-22.426c6.1641 0.21094 11.727 2.7773 15.801 6.8516l-4.4766 4.4766c-2.9414-2.9414-6.9297-4.8203-11.324-5.0273l-0.003907-6.3008zm16.246 21.551c-0.375-3.4102-1.7539-6.5078-3.8242-9.0117l4.4922-4.4883c3.1797 3.6641 5.2461 8.332 5.6562 13.504zm-34.133 0h-6.3242c0.41016-5.168 2.4766-9.8398 5.6562-13.504l4.4922 4.4922c-2.0703 2.5039-3.4492 5.6016-3.8242 9.0117zm4.9258-10.223-4.4766-4.4766c4.0703-4.0742 9.6367-6.6445 15.801-6.8516v6.3008c-4.3984 0.20703-8.3867 2.0859-11.324 5.0273zm42.098 20.113c8.0273-0.94531 14.555-4.8984 17.242-10.285l-0.68359 0.29688c-0.41406 0.17969-0.89844-0.007812-1.0781-0.42578-0.17969-0.41406 0.007813-0.89844 0.42578-1.0781l2.5312-1.1016c0.011718-0.007812 0.027343-0.007812 0.042968-0.011718 0.03125-0.011719 0.0625-0.023438 0.09375-0.027344 0.023438-0.003906 0.042969-0.007812 0.066406-0.011719 0.03125-0.003906 0.0625-0.007812 0.09375-0.007812h0.070313c0.03125 0 0.058594 0.003906 0.089844 0.007812 0.027343 0.003907 0.050781 0.007813 0.078125 0.015625 0.011718 0.003906 0.027344 0.003906 0.042968 0.007813 0.015626 0.003906 0.027344 0.011719 0.042969 0.019531 0.011719 0.003906 0.027344 0.007812 0.039063 0.011719 0.011718 0.003906 0.019531 0.011719 0.03125 0.019531 0.027344 0.011719 0.054687 0.027344 0.078125 0.046875 0.019531 0.011719 0.039062 0.027344 0.058593 0.042969 0.023438 0.019531 0.046876 0.039062 0.070313 0.0625l0.050781 0.050781c0.019532 0.023437 0.039063 0.050781 0.054688 0.074219 0.011718 0.019531 0.027344 0.039062 0.039062 0.058594 0.015625 0.027343 0.027344 0.058593 0.039063 0.085937 0.007812 0.015625 0.015625 0.03125 0.023437 0.046875l0.87891 2.6172c0.14453 0.42969-0.085937 0.89453-0.51562 1.0352-0.085938 0.027344-0.17578 0.042968-0.26172 0.042968-0.34375 0-0.66016-0.21484-0.77734-0.55859l-0.18359-0.54297c-2.9531 5.8516-9.9375 10.125-18.488 11.133-0.03125 0.003907-0.066406 0.003907-0.097656 0.003907-0.41016 0-0.76172-0.30469-0.8125-0.72266-0.054688-0.44531 0.26562-0.85156 0.71484-0.90625zm-0.77734 12.781c0 0.45313 0.36719 0.82031 0.82031 0.82031h5.6445c0.45312 0 0.82031-0.36719 0.82031-0.82031v-6.2461c0-0.45312-0.36719-0.82031-0.82031-0.82031h-5.6445c-0.45312 0-0.82031 0.36719-0.82031 0.82031zm1.6406-5.4258h4.0039v4.6055h-4.0039zm9.1406-6.6602c-0.45312 0-0.82031 0.36719-0.82031 0.82031v11.266c0 0.45313 0.36719 0.82031 0.82031 0.82031h5.6445c0.45312 0 0.82031-0.36719 0.82031-0.82031v-11.266c0-0.45313-0.36719-0.82031-0.82031-0.82031zm4.8242 11.266h-4.0039v-9.6289h4.0039zm4.3203-15.582v16.402c0 0.45313 0.36719 0.82031 0.82031 0.82031h5.6445c0.45312 0 0.82031-0.36719 0.82031-0.82031l-0.003906-16.402c0-0.45312-0.36719-0.82031-0.82031-0.82031h-5.6445c-0.44922 0-0.81641 0.36719-0.81641 0.82031zm1.6367 0.82031h4.0039l0.003906 14.762h-4.0039zm-3.9414-26.773c-0.066407 0-0.12891 0.003906-0.19531 0.007812-0.35938-0.86328-0.70312-1.7539-1.0117-2.6797-0.011718-0.035157-0.023437-0.066407-0.039062-0.097657-0.20703-0.42578-0.60938-0.70312-1.0781-0.74609s-0.91797 0.16016-1.1953 0.53906c-0.042968 0.058594-0.082031 0.12891-0.10547 0.19531-0.80469 2.1445-2.1836 4.0391-4.1055 5.6289l-2.707 1.2852c-1.5859 0.75391-2.0859 2.5664-1.2227 4.4141 0.55859 1.1914 1.625 2.1523 2.8594 2.2578l3.0234 4.5078c0.27344 0.40625 0.70703 0.61719 1.1953 0.61719 0.38672 0 0.80469-0.12891 1.1992-0.39844 0.92188-0.61719 1.2383-1.5938 0.74609-2.3242l-2.4922-3.7188 0.45312-0.21094c2.1875-0.46484 4.5195-0.33203 7.125 0.41406 0.066406 0.019531 0.12891 0.027344 0.19531 0.03125 0.49219 0.011719 0.96094-0.24219 1.2148-0.67188 0.23828-0.41016 0.23828-0.91406-0.003906-1.3125-0.48047-0.78906-0.97656-1.6289-1.4727-2.5117 0.49609-0.57031 0.77734-1.3047 0.77734-2.0742 0-1.7344-1.418-3.1523-3.1602-3.1523zm1.5234 3.1602c0 0.13281-0.019531 0.26172-0.050781 0.38672-0.30078-0.58203-0.60156-1.1797-0.89062-1.793 0.55078 0.22656 0.94141 0.76953 0.94141 1.4062zm-11.703 4.6914c-0.082031-0.16797-0.74609-1.6797 0.44141-2.2422l2.0586-0.97656 1.6484 3.4727-2.0625 0.95703c-0.91406 0.42188-1.7461-0.49219-2.0859-1.2109zm6.0898 6.1367c-0.089844 0.11328-0.27734 0.24609-0.41406 0.29297l-2.5977-3.875 0.46484-0.21484zm-0.37891-6.4102-1.8125-3.8164c1.6719-1.4727 2.9531-3.1719 3.8164-5.0703 1.2812 3.5547 2.9492 6.6133 4.4961 9.2031-2.2969-0.55469-4.4766-0.66016-6.5-0.31641zm-30.828 33.527c0-6.3438-5.1602-11.504-11.504-11.504s-11.504 5.1602-11.504 11.504 5.1602 11.504 11.504 11.504c2.4648 0 4.7539-0.78516 6.6289-2.1094 0.03125-0.015625 0.0625-0.035156 0.089844-0.054688 0.019532-0.015625 0.039063-0.035156 0.054688-0.050781 2.8633-2.0977 4.7305-5.4766 4.7305-9.2891zm-5.1016 7.4961-4.8047-6.6797h8.2305c-0.21875 2.668-1.5039 5.0352-3.4258 6.6797zm3.4258-8.3164h-9.0117v-9.0117c4.7891 0.39844 8.6172 4.2227 9.0117 9.0117zm-19.695 0.82031c0-5.1641 3.9883-9.4102 9.0469-9.8281v9.8281 0.011719c0 0.03125 0.003906 0.066407 0.007812 0.097657 0.003906 0.023437 0.003906 0.042968 0.007813 0.066406 0.003906 0.027344 0.015625 0.050781 0.023437 0.074218 0.007813 0.027344 0.015625 0.050782 0.027344 0.078126 0.007812 0.019531 0.019531 0.039062 0.03125 0.054687 0.015625 0.027344 0.03125 0.058594 0.050781 0.085937 0.003907 0.003907 0.003907 0.007813 0.007813 0.011719l5.7383 7.9805c-1.4844 0.89453-3.2188 1.4102-5.0742 1.4102-5.4414-0.007812-9.8672-4.4336-9.8672-9.8711z"/>
<text x="0.0" y="117.5" font-size="0" font-weight="bold" font-family="Arbeit Regular, Helvetica, Arial-Unicode, Arial, Sans-serif" fill="#00000000"></text><text x="0.0" y="122.5" font-size="0" font-weight="bold" font-family="Arbeit Regular, Helvetica, Arial-Unicode, Arial, Sans-serif" fill="#00000000"></text></svg>